<?xml version="1.0" encoding="utf-8"?>
<!-- Generator: Adobe Illustrator 22.0.1, SVG Export Plug-In . SVG Version: 6.00 Build 0)  -->
<svg version="1.1" id="Слой_1" xmlns="http://www.w3.org/2000/svg" xmlns:xlink="http://www.w3.org/1999/xlink" x="0px" y="0px"
	 viewBox="0 0 36 36" style="enable-background:new 0 0 36 36;" xml:space="preserve">
<style type="text/css">
	.st0{fill:#FF9800;}
</style>
<g>
	<path class="st0" d="M21.2,18c-0.6-0.3-1.1-0.6-1.5-0.9L17.4,16c-0.6-0.3-1.7-0.8-2.6-1.5c-0.7-0.5-2-1.5-2.4-3.7
		c0,0-2,4.3,2.4,7.1c0.5,0.3,1,0.6,1.4,0.8l2.6,1.3c0.6,0.3,1.6,0.8,2.4,1.4c0.7,0.5,2,1.5,2.4,3.7C23.6,25.2,25.6,20.9,21.2,18z"/>
	<path class="st0" d="M25.3,8.8L25.3,8.8h-7.9l0,0l0,0l0,0l0,0c1.2,0.4,2.5,0.8,3.3,1.6c0.9,0.9,1.2,2.2,1.3,3.2l0,0
		c0,0.1,0.1,0.1,0.1,0.1c0.1,0,0.1-0.1,0.1-0.1c0,0,0.2-1.9,0.3-2.6c0.3-1.2,1.4-1.4,1.6-1.5c0.2-0.1,0.8-0.1,1-0.1
		c0.1,0,0.1,0,0.1,0c0.1,0,0.3-0.1,0.3-0.3C25.6,9,25.5,8.8,25.3,8.8z"/>
	<path class="st0" d="M10.7,27.2L10.7,27.2h7.9l0,0l0,0l0,0l0,0c-1.2-0.4-2.5-0.8-3.3-1.6c-0.9-0.9-1.2-2.2-1.3-3.2l0,0
		c0-0.1-0.1-0.1-0.1-0.1c-0.1,0-0.1,0.1-0.1,0.1c0,0-0.2,1.9-0.3,2.6c-0.3,1.2-1.4,1.4-1.6,1.5c-0.2,0.1-0.8,0.1-1,0.1
		c-0.1,0-0.1,0-0.1,0c-0.1,0-0.3,0.1-0.3,0.3C10.4,27,10.5,27.2,10.7,27.2z"/>
</g>
</svg>
