<?xml version="1.0" encoding="utf-8"?>
<!-- Generator: Adobe Illustrator 19.0.1, SVG Export Plug-In . SVG Version: 6.00 Build 0)  -->
<svg version="1.1" id="Layer_1" xmlns="http://www.w3.org/2000/svg" xmlns:xlink="http://www.w3.org/1999/xlink" x="0px" y="0px"
	 viewBox="-300.1 397.7 74.9 68.6" style="enable-background:new -300.1 397.7 74.9 68.6;" xml:space="preserve">
<style type="text/css">
	.st0{opacity:0.15;fill:#FFFFFF;}
</style>
<path class="st0" d="M-277.7,397.8c-4.3,0.9-6.6,6-6.2,13.4c0.1,2.2,0.1,1.9,0.6,4.7c0.2,1.1,0.3,2,0.3,2.1c0,0-0.8,0.2-1.7,0.4
	c-5.9,1.4-10.2,3.4-12.9,6.1c-1.8,1.8-2.5,3.4-2.5,5.5c0,1.2,0.4,2.5,1.1,3.7c0.6,1.1,2.8,3.2,4.2,4.2c3,2,3.9,2.3,4.8,1.5
	c0.3-0.3,0.4-0.5,0.4-0.9c0-0.8-0.3-1.2-1.2-1.7c-4.1-2.3-6.3-4.7-6.3-6.9c0-0.8,0.3-1.6,1-2.5c1.8-2.4,6.2-4.6,12-6
	c1.5-0.4,1.8-0.4,1.8-0.1s1.2,4.3,2,6.5l0.8,2.2l-1,1.9c-0.5,1-1.3,2.6-1.7,3.5c-5.7,12.6-6.7,22.6-2.5,26.8c1,1,1.8,1.4,3.1,1.8
	c3,0.8,7-0.4,11.5-3.3c1.6-1,1.9-1.4,1.9-2.1c0-0.8-0.9-1.6-1.7-1.5c-0.2,0-1.1,0.5-1.9,1.1c-1.8,1.2-3.9,2.3-5.4,2.7
	c-1.5,0.5-3.2,0.5-4.1,0.1c-2.9-1.3-3.6-6.5-1.8-13.7c0.8-3.4,2.8-8.6,4.6-12.1l0.7-1.4l0.4,0.9c0.7,1.7,3.5,7.1,4.6,9
	c6.1,10.3,12.9,17.9,19,21c4.3,2.2,7.9,2,10.3-0.6c1.8-1.9,2.7-4.6,2.8-8.7c0.2-7.1-2.1-16.3-6.6-26.2c-0.6-1.3-1.2-2.5-1.3-2.6
	c-0.3-0.3-1-0.5-1.4-0.4c-0.5,0.1-1.1,0.7-1.1,1.2c-0.1,0.5,0,0.8,1.1,3.2c3.1,6.7,5.3,13.7,6.1,19.7c0.3,2,0.3,6.3,0.1,7.6
	c-0.2,1.3-0.7,2.7-1.3,3.5c-0.8,1.3-1.8,1.8-3.4,1.8c-4.7,0-12.1-6.5-18.7-16.3c-3-4.5-5.8-9.6-8-14.7l-0.8-1.8l1.1-1.8
	c1.4-2.4,2.9-4.6,4.5-6.9l1.3-1.8h2c13.9,0,27.7,3.1,34.7,7.9c1.6,1.1,3.2,2.7,3.7,3.8c0.4,0.8,0.4,1,0.4,1.9c0,0.8-0.1,1.1-0.3,1.6
	c-0.9,1.7-3,3.3-6.1,4.7c-1.4,0.6-1.9,1-1.9,1.8c0,0.7,0.3,1.2,0.8,1.4c0.6,0.3,0.8,0.3,1.7-0.1c4.4-1.8,7.5-4.4,8.5-7
	c1.8-4.9-2-9.8-10.4-13.5c-7.4-3.2-18.2-5.2-29.4-5.5h-1.2l1.4-1.6c1.6-1.9,5.2-5.5,6.7-6.8c3.6-3.1,6.9-5,9.7-5.8
	c1.4-0.4,3.1-0.4,4,0c1.2,0.5,2,1.7,2.5,3.6c0.3,1.1,0.3,4.6,0,6.3c-0.3,1.8-0.3,2.2,0.2,2.7c0.4,0.4,0.5,0.4,1,0.4
	c1.1,0,1.4-0.4,1.7-2.4c0.2-1,0.2-2,0.2-4.1c0-2.4,0-2.8-0.3-3.8c-0.8-3.1-2.7-5.3-5.3-5.9c-6-1.4-15.1,4.3-24.2,15.2
	c-0.7,0.9-1.4,1.8-1.6,1.9c-0.2,0.3-0.3,0.3-2.1,0.4c-1.1,0.1-3,0.2-4.3,0.4c-3.5,0.4-3.2,0.4-3.4-0.5c-0.5-2.5-0.7-4.3-0.7-7
	c0-2.9,0.1-3.8,0.6-5.5c0.6-1.7,1.5-2.9,2.8-3.3c0.6-0.2,2.1-0.2,2.9,0c1.5,0.4,3.5,1.5,5.4,2.9c1.1,0.8,1.5,1,2.1,0.8
	c0.7-0.2,1.1-0.8,1.1-1.5c0-0.5,0-0.6-0.6-1.1c-0.8-0.7-3-2.2-4.4-2.9C-273.5,397.8-275.7,397.4-277.7,397.8L-277.7,397.8z
	 M-273,419.9c0,0.1-0.8,1.3-1.8,2.7c-1,1.4-1.9,2.9-2.1,3.2l-0.4,0.6l-0.3-0.8c-0.4-1-1.5-4.8-1.5-5s0.5-0.3,4.6-0.7
	C-273.6,419.9-273,419.9-273,419.9L-273,419.9z M-263.5,427.7c-0.9,0.3-1.7,0.9-2.3,1.7c-1.5,2.3-0.8,5.2,1.6,6.4
	c0.7,0.4,0.9,0.4,2,0.4c1,0,1.2,0,2-0.4c3.3-1.6,3.2-6.3-0.1-7.9C-261.2,427.5-262.7,427.4-263.5,427.7L-263.5,427.7z"/>
</svg>
