<?xml version="1.0" encoding="utf-8"?>
<!-- Generator: Adobe Illustrator 19.0.1, SVG Export Plug-In . SVG Version: 6.00 Build 0)  -->
<svg version="1.1" id="Layer_1" xmlns="http://www.w3.org/2000/svg" xmlns:xlink="http://www.w3.org/1999/xlink" x="0px" y="0px"
	 viewBox="0 0 163.9 158.3" style="enable-background:new 0 0 163.9 158.3;" xml:space="preserve">
<style type="text/css">
	.st0{fill:#FFFFFF;}
	.st1{fill:#CCCCCC;}
</style>
<path class="st0" d="M-4725.4-1462.5h45.4c0.3-3.1,0.5-6.4,0.5-9.7c0-15.4-4.1-29.9-11.4-42.4c7.5-19.9,7.2-36.7-2.8-46.8
	c-9.5-9.5-35.1-7.9-63.9,4.8c-2.1-0.2-4.3-0.2-6.5-0.2c-39.6,0-72.9,27.3-82.1,64c12.4-15.9,25.5-27.5,43-35.9
	c-1.6,1.5-10.9,10.7-12.4,12.3c-46.1,46.1-60.6,106.2-45,121.8c11.9,11.9,33.4,9.9,58.1-2.2c11.5,5.9,24.5,9.2,38.3,9.2
	c37.1,0,68.6-23.9,80-57.2h-45.7c-6.3,11.6-18.6,19.5-32.7,19.5c-14.1,0-26.4-7.9-32.7-19.5c-2.8-5.2-4.4-11.3-4.4-17.6v-0.1h0.1
	v-22.3c1-18.7,16.6-33.6,35.5-33.6c19,0,34.5,14.9,35.5,33.6v22.3H-4725.4z M-4848.6-1397.4c-8.2-8.2-5.7-25.5,4.9-46.3
	c6.6,18.5,19.5,34.1,36,44.1C-4826.1-1391.3-4841.1-1389.9-4848.6-1397.4z M-4732.7-1550.7c17.3-7.4,31.4-8.4,38.6-1.2
	c6.4,6.5,6.3,18.5,0.8,33.5C-4702.8-1532.8-4716.5-1544.2-4732.7-1550.7z"/>
<g>
	<path class="st0" d="M-4716.9-1525c4.5,0,3.4,9.1,7.5,9.4c1.3,0.1,1.2,1.7,2.2,2.6c2.7,2.3,4.4,6.5,7.1,8.9
		c2.9,2.6-5.4,3.7-1.4,3.5c3.7-0.2,3.2-5.6,7.1-5.6c0,12.1,1.7,24.2,1.7,36.4c-3.1,0-16.3,0-19.4,0c-0.3,0-0.7-0.5-0.8-0.8
		c-0.3-2.2,15.4-7.4,13.8-8.9c-2.9-2.8,2-4-0.9-6.8c-2.7-2.7,1.6-7.5-1.6-6.1c-3.2,1.4-4.7,4-4.6,7.9c0,0.2,0,0.5,0,0.9
		c-2.9,0-5.4,0.8-7.2,3.2c-1.7,2.3-1.9,4.9-1,7.8c-2.4,0.4-4.6,1.2-6.1,3.3c-1.5,2-1.7,4.3-1.4,6.7c-0.7,0.1-2.5,0.6-2,0.3
		c5.1-3.8,1.5,2.1,5.1-1.6c24-24-10.4,14.1-11.3,14.8c-0.5,0.4-1,1-1.5,1.5c-2.3,2.1-5.3,2.1-7.4,0c-2.1-2.2-2.1-5.2,0.1-7.4
		c4.4-4.5,8.9-8.9,13.4-13.4c0.3-0.3,0.8-0.6,0.9-1c0.1-0.4,0.1-1.1-0.2-1.4c-0.3-0.3-1-0.3-1.4-0.2c-0.4,0.1-0.7,0.6-1,0.9
		c-5.4,5.4-10.8,10.8-16.2,16.2c-1.8,1.8-4,2.1-6.1,1c-2.1-1.1-3.4-3.5-2.8-5.7c0.3-1.1,1-2.2,1.8-3c5.2-5.3,10.5-10.5,15.8-15.8
		c0.3-0.3,0.7-0.5,0.8-0.9c0.1-0.5,0.3-1.4,0-1.6c-0.3-0.3-1.1-0.2-1.7,0c-0.3,0.1-0.6,0.5-0.9,0.8c-11.3,11.3-22.6,22.6-33.9,33.9
		c-1.5,1.5-3.2,2.3-5.4,1.6c-2-0.7-3.3-2.1-3.8-4.2c-0.4-1.9,0.4-3.5,1.7-4.8c4.2-4.2,8.4-8.4,12.6-12.6
		c7.1-7.1,14.2-14.2,21.4-21.4c0.3-0.3,0.7-0.5,0.8-0.9c0.1-0.5,0.2-1.3,0-1.5c-0.4-0.3-1.1-0.2-1.7-0.1c-0.3,0.1-0.6,0.5-0.9,0.8
		c-5.5,5.5-10.9,10.9-16.4,16.4c-1.8,1.8-3.8,2.2-5.8,1.2c-2.1-1-3.6-3.1-3.2-5.4c0.2-1.1,0.8-2.4,1.6-3.2c8.9-9,25-25.1,33.9-34
		c0.4-0.4,2.9-2.5,3.5-2.5c4.4-0.1-0.3,9,4,9.1c0.7,0,1.4,0.4,1.9,0.8c3.5,3,7.3,5.5,11.9,6.4c2.8,0.5,5.5,0.4,8.2-0.8
		c5-2.3,6.1-7.4,2.2-11.4c-3.8-3.9-7.7-7.7-11.6-11.6C-4715.9-1523.9-4716.3-1524.4-4716.9-1525z"/>
</g>
<g>
	<path class="st0" d="M-5221.1-1445c-5.5,0-25.6,0-26.2,0c-2.8-0.1-4.7-2-4.6-4.7c0-2.7,1.9-4.6,4.7-4.6c5.6,0,11.2,0,16.8,0
		c0.4,0,0.9,0.1,1.2-0.1c0.4-0.2,0.8-0.7,0.8-1c0-0.4-0.4-0.8-0.7-1c-0.3-0.2-0.8-0.1-1.2-0.1c-6.8,0-13.6,0-20.4,0
		c-2.3,0-3.9-1.2-4.5-3.2c-0.6-2.1,0.1-4.3,1.8-5.3c0.9-0.5,2-0.7,3-0.7c6.6-0.1,13.2,0,19.8,0c0.4,0,0.8,0.1,1,0c0.4-0.3,1-0.7,1-1
		c0-0.4-0.6-0.8-1-1.1c-0.3-0.2-0.7,0-1,0c-14.2,0-28.4,0-42.6,0c-1.9,0-3.5-0.6-4.4-2.4c-0.9-1.7-0.8-3.4,0.2-5
		c0.9-1.5,2.4-1.9,4.1-1.9c5.3,0,10.6,0,15.9,0c9,0,17.9,0,26.9,0c0.4,0,0.8,0.1,1,0c0.4-0.2,1-0.7,0.9-1c-0.1-0.4-0.6-0.8-1-1.1
		c-0.2-0.2-0.7,0-1,0c-6.9,0-13.8,0-20.6,0c-2.2,0-3.7-1-4.4-2.9c-0.7-2-0.3-4.2,1.4-5.4c0.8-0.6,2-1,3-1c11.2-0.1,31.5-0.1,42.7,0
		c0.5,0,3.4,0.3,3.8,0.6c2.8,2.7-5.9,5.4-3.2,8.2c0.4,0.4,0.7,1.1,0.7,1.7c0.3,4.1,1.1,8,3.4,11.5c1.4,2.1,3.2,3.8,5.6,4.7
		c4.6,1.7,8.5-0.9,8.6-5.8c0.1-4.9,0-9.7,0-14.6c0-0.5,0-1,0-1.9c2.8,2.8-3.6,7.9-1.2,10.6c0.8,0.9-0.4,1.8-0.3,3
		c0.3,3.2-1.3,6.9-1.1,10.1c0.2,3.4-5.7-1.1-3,1.3c2.5,2.2,5.5-1.5,7.9,0.9"/>
</g>
<path class="st0" d="M-5218.6-1445h45.4c0.3-3.1,0.5-6.4,0.5-9.7c0-15.4-4.1-29.9-11.4-42.4c7.5-19.9,7.2-36.7-2.8-46.8
	c-9.5-9.5-35.1-7.9-63.9,4.8c-2.1-0.2-4.3-0.2-6.5-0.2c-39.6,0-72.9,27.3-82.1,64c12.4-15.9,25.5-27.5,43-35.9
	c-1.6,1.5-10.9,10.7-12.4,12.3c-46.1,46.1-60.6,106.2-45,121.8c11.9,11.9,33.4,9.9,58.1-2.2c11.5,5.9,24.5,9.2,38.3,9.2
	c37.1,0,68.6-23.9,80-57.2h-45.7c-6.3,11.6-18.6,19.5-32.7,19.5c-14.1,0-26.4-7.9-32.7-19.5c-2.8-5.2-4.4-11.3-4.4-17.6v-0.1h0.1
	v-22.3c1-18.7,16.6-33.6,35.5-33.6c19,0,34.5,14.9,35.5,33.6v22.3H-5218.6z M-5341.9-1380c-8.2-8.2-5.7-25.5,4.9-46.3
	c6.6,18.5,19.5,34.1,36,44.1C-5319.3-1373.9-5334.4-1372.5-5341.9-1380z M-5226-1533.2c17.3-7.4,31.4-8.4,38.6-1.2
	c6.4,6.5,6.3,18.5,0.8,33.5C-5196-1515.4-5209.7-1526.8-5226-1533.2z"/>
<path class="st0" d="M-4999.6-1823c7.5-19.9,7.2-36.7-2.8-46.8c-9.5-9.5-35.1-7.9-63.9,4.8c-2.1-0.2-4.3-0.2-6.5-0.2
	c-39.6,0-72.9,27.3-82.1,64c12.4-15.9,25.5-27.5,43-35.9c-1.6,1.5-10.9,10.7-12.4,12.3c-46.1,46.1-60.6,106.2-45,121.8
	c11.9,11.9,33.4,9.9,58.1-2.2c11.5,5.9,24.5,9.1,38.3,9.1c37.1,0,35.5-14.7,56.8-33.9l-22.5-23.2c-6.3,11.6-18.6,19.5-32.7,19.5
	c-14.1,0-26.4-7.9-32.7-19.5c-2.8-5.2-4.4-11.3-4.4-17.6v-0.1h0.1v-22.3c1-18.7,16.6-33.6,35.5-33.6s34.5,14.9,35.5,33.6
	 M-5037.2-1771 M-5157.3-1705.9c-8.2-8.2-5.7-25.5,4.9-46.3c6.6,18.5,19.5,34.1,36,44.1C-5134.8-1699.8-5149.8-1698.4-5157.3-1705.9
	z M-5041.4-1859.2c17.3-7.4,31.4-8.4,38.6-1.2c6.4,6.5,6.3,18.5,0.8,33.5C-5011.5-1841.4-5025.2-1852.7-5041.4-1859.2z"/>
<path class="st0" d="M-4963.8-1456.5h45.4c0.3-3.1,0.5-6.4,0.5-9.7c0-15.4-4.1-29.9-11.4-42.4c7.5-19.9,7.2-36.7-2.8-46.8
	c-9.5-9.5-35.1-7.9-63.9,4.8c-2.1-0.2-4.3-0.2-6.5-0.2c-39.6,0-72.9,27.3-82.1,64c12.4-15.9,25.5-27.5,43-35.9
	c-1.6,1.5-10.9,10.7-12.4,12.3c-46.1,46.1-60.6,106.2-45,121.8c11.9,11.9,33.4,9.9,58.1-2.2c11.5,5.9,24.5,9.2,38.3,9.2
	c37.1,0,68.6-23.9,80-57.2h-45.7c-6.3,11.6-18.6,19.5-32.7,19.5s-26.4-7.9-32.7-19.5c-2.8-5.2-4.4-11.3-4.4-17.6v-0.1h0.1v-22.3
	c1-18.7,16.6-33.6,35.5-33.6c19,0,34.5,14.9,35.5,33.6v22.3H-4963.8z M-5087.1-1391.4c-8.2-8.2-5.7-25.5,4.9-46.3
	c6.6,18.5,19.5,34.1,36,44.1C-5064.5-1385.3-5079.5-1383.9-5087.1-1391.4z M-4971.1-1544.7c17.3-7.4,31.4-8.4,38.6-1.2
	c6.4,6.5,6.3,18.5,0.8,33.5C-4941.2-1526.8-4954.9-1538.2-4971.1-1544.7z"/>
<g>
	<path class="st0" d="M-4989.9-1484.8c2.6,0,5-0.1,7.3,0.1c0.7,0,1.5,0.6,2.1,1.1c1.6,1.3,3.1,2.7,4.6,4.1c1.7,1.5,3.5,2.3,5.8,2.1
		c2.1-0.1,9.1,0,11.3,0c0,7,1,13.9,1,20.9c-1.8,0-9.4,0-11.1,0c-0.2,0-0.4-0.3-0.4-0.5c-0.2-1.3-0.8-2.3-1.7-3.1
		c-1.7-1.6-3.3-3.3-5-4.9c-1.5-1.5-3.3-1.9-5.1-1.1c-1.8,0.8-2.7,2.3-2.7,4.5c0,0.1,0,0.3,0,0.5c-1.7,0-3.1,0.4-4.1,1.8
		c-1,1.3-1.1,2.8-0.6,4.5c-1.4,0.3-2.7,0.7-3.5,1.9c-0.8,1.2-1,2.4-0.8,3.9c-0.4,0.1-0.8,0.1-1.1,0.2c-2.9,0.5-4.6,3.6-3.3,6.2
		c0.3,0.6,0.2,1-0.3,1.4c-0.3,0.2-0.6,0.6-0.9,0.8c-1.3,1.2-3,1.2-4.3,0c-1.2-1.2-1.2-3,0-4.3c2.5-2.6,5.1-5.1,7.7-7.7
		c0.2-0.2,0.4-0.3,0.5-0.6c0.1-0.3,0.1-0.7-0.1-0.8c-0.2-0.2-0.6-0.2-0.8-0.1c-0.2,0.1-0.4,0.3-0.6,0.5c-3.1,3.1-6.2,6.2-9.3,9.3
		c-1,1-2.3,1.2-3.5,0.6c-1.2-0.7-2-2-1.6-3.3c0.2-0.6,0.6-1.2,1-1.7c3-3,6-6.1,9-9.1c0.2-0.2,0.4-0.3,0.5-0.5c0.1-0.3,0.1-0.8,0-0.9
		c-0.2-0.2-0.6-0.1-1,0c-0.2,0-0.3,0.3-0.5,0.5c-6.5,6.5-13,13-19.4,19.5c-0.9,0.9-1.9,1.3-3.1,0.9c-1.2-0.4-1.9-1.2-2.2-2.4
		c-0.2-1.1,0.2-2,1-2.8c2.4-2.4,4.8-4.8,7.2-7.2c4.1-4.1,8.2-8.2,12.3-12.3c0.2-0.2,0.4-0.3,0.5-0.5c0.1-0.3,0.1-0.8,0-0.9
		c-0.2-0.2-0.6-0.1-1-0.1c-0.2,0-0.3,0.3-0.5,0.5c-3.1,3.1-6.3,6.3-9.4,9.4c-1,1-2.2,1.2-3.3,0.7c-1.2-0.6-2-1.8-1.8-3.1
		c0.1-0.7,0.5-1.4,0.9-1.8c5.1-5.1,10.2-10.3,15.3-15.4c0.2-0.2,0.6-0.4,1-0.4c2.5,0,5,0,7.5,0c0.4,0,0.8,0.2,1.1,0.5
		c2,1.7,4.2,3.2,6.8,3.7c1.6,0.3,3.2,0.2,4.7-0.4c2.9-1.3,3.5-4.3,1.3-6.5c-2.2-2.2-4.4-4.4-6.6-6.7
		C-4989.3-1484.1-4989.6-1484.4-4989.9-1484.8z"/>
	<path class="st0" d="M-5023.3-1456.7c-1.5,0-9.9,0-11.7,0c0-6.9,0.6-13.8,0.6-20.8c0.2,0,6.5-0.1,6.8-0.1c2,0,4-0.1,6,0
		c2,0.1,3.8-0.6,5.2-1.9c1.6-1.4,3.2-2.8,4.7-4.2c1.1-1,2.3-1.4,3.8-1.4c4.5,0.1,9,0,13.5,0c1.5,0,2.6,0.4,3.6,1.5
		c2.2,2.3,4.5,4.6,6.8,6.8c1.8,1.8,1.3,4-1.2,4.7c-2,0.6-3.9,0.2-5.7-0.7c-1.4-0.8-2.6-1.8-3.9-2.7c-0.5-0.4-1-0.6-1.6-0.6
		c-2.8,0-5.5,0-8.3,0c-0.4,0-0.9,0.2-1.2,0.5c-5.2,5.2-10.5,10.4-15.6,15.7C-5022.3-1459-5022.7-1457.8-5023.3-1456.7z"/>
	<path class="st0" d="M-4978.9-1447.7c-0.7-0.3-1.4-0.5-2-1c-2-1.9-4-3.9-6-6c-1.2-1.3-1.2-3,0-4.2c1.2-1.2,3-1.3,4.3,0
		c2,2,4,3.9,5.9,5.9c0.9,0.9,1.1,2.1,0.6,3.3C-4976.6-1448.5-4977.6-1447.9-4978.9-1447.7z"/>
	<path class="st0" d="M-4974.5-1453.6c-0.4-0.2-1.2-0.4-1.8-1c-1.9-1.8-3.8-3.7-5.6-5.6c-1.2-1.2-1.2-3,0-4.2
		c1.2-1.2,2.9-1.3,4.1-0.1c2,1.9,3.9,3.8,5.8,5.8c0.9,0.9,1.1,2.1,0.6,3.3C-4971.9-1454.3-4972.8-1453.7-4974.5-1453.6z"/>
	<path class="st0" d="M-4981.8-1446.7c0,1.6-0.6,2.5-1.7,3.1c-1.1,0.5-2.3,0.4-3.2-0.4c-1.5-1.4-3-2.9-4.5-4.4
		c-1.1-1.1-1-2.8,0.1-3.9c1.1-1.2,2.8-1.4,4-0.4c1.6,1.4,3.1,3,4.6,4.5C-4982-1447.8-4981.9-1447-4981.8-1446.7z"/>
	<path class="st0" d="M-4991.9-1439.5c-0.6-0.4-1.4-0.7-1.9-1.1c-0.7-0.6-1.3-1.3-2-2c-1.1-1.1-1.1-2.8,0-4.1
		c1.1-1.2,2.9-1.4,4.1-0.3c0.8,0.7,1.5,1.5,2.2,2.2c0.9,0.9,1.1,2,0.6,3.1C-4989.4-1440.4-4990.6-1439.7-4991.9-1439.5z"/>
</g>
<g>
	<path class="st0" d="M-5007.7-1817.1c-13.4-15.6-33.2-25.5-55.4-25.5c-40.3,0-72.9,32.7-72.9,72.9c0,40.3,32.7,72.9,72.9,72.9
		c22.2,0,42-9.9,55.4-25.5l-46.3-47.5L-5007.7-1817.1z M-5048.6-1826.1c5.4,0,9.7,4.4,9.7,9.7c0,5.4-4.4,9.7-9.7,9.7
		c-5.4,0-9.7-4.4-9.7-9.7C-5058.4-1821.7-5054-1826.1-5048.6-1826.1L-5048.6-1826.1z M-5048.6-1826.1"/>
</g>
<g>
	<path class="st1" d="M19.6,109c0.3,0.8,0.7,1.7,1.2,2.7c0.6,1.5,1.2,2.8,1.2,2.9c0,0.2,1,1.9,2.2,4.1c4.9,8.6,11.2,15.8,19.1,21.8
		c2.3,1.7,2.8,2.1,3.5,2.3l0,0c0.9,0.4,1.3,0.1,0.3-2c-2-4-3.2-8.3-4.7-13.4c-0.9-3.1-1.2-5.2-1.2-10.3c0-6,0.1-6.4,1.3-7.7
		c2.4-2.5,5.9-1.6,9.8,2.6c2.9,3.1,8.6,12.5,10.4,17.4c0.7,1.8,0.7,1.7,0.4-1.6c-0.6-6-0.4-13.7,0.5-15.7c2.6-6.2,7.3-5.2,12.6,2.9
		c3.6,5.5,5.5,10.4,8.6,21.1c1.5,5.4,4.8,21.1,4.8,21.1s3.4-16.5,4.7-21.2c2.6-10,6-17.8,10-23.2c5.7-7.7,11.1-6.1,12.2,3.7
		c0.3,2.9-0.4,11.8-1.1,14.1c-0.2,0.5,1.1-1.8,2.8-5.1c5.9-11.7,11.1-17.7,15.3-17.7c1.4,0,2.3,0.4,3.2,1.4c1.1,1.2,1.3,1.9,1.4,6.4
		c0.3,7.2-1.9,15.2-6.8,25.6c-0.8,1.5-1.3,2.9-1.1,3c0.5,0.6,7.8-5.3,12.5-10c10.3-10.3,17.1-22.9,20.2-37.3
		c1.7-7.8,1.9-20,0.5-27.6c-1.2-6.4-2.7-11.8-4.3-15.6c-1.8-4.2-3.8-8.1-6.2-11.8c-4.8-7.6-10.9-14.3-17.9-19.6
		c-3.8-2.9-7.9-5.5-7.9-4.9c0,0.1,0.2,0.4,0.5,0.8c0.3,0.5,0.4,0.6,1,1.3c5.8,7,8.2,21.5,5.7,28.9c-1,3.1-4.6,6.7-8.6,8.6
		c-5.2,2.6-12.5,2.9-15.8,0.7c-3.5-2.3-7.8-13.9-10-27.1c-0.2-1.1-0.6-3-0.9-4.2L98,24.6L97.3,29c-0.8,5.4-2.6,8.3-5.8,9.4
		c-1.8,0.7-2.5,0.7-4.3,0.1c-3.7-1.2-5.4-4.1-6.1-10.3c-0.2-1.5-0.5-2.7-0.6-2.7c-0.2,0-0.7,2-1.2,4.5c-1.8,9.5-4.3,19.2-5.1,20.2
		c-0.2,0.3-0.6,1.1-0.8,1.8c-0.7,2.2-3.3,5.7-5.1,6.6c-2.2,1.1-8.1,1.1-12-0.1c-3.9-1.1-9.1-5.1-10.8-8.1C44.7,49,44.2,47.2,44,45
		C31.7,57.5,22,71,14.9,84.3v0c-16,29.7-19,57.6-9.6,67c10.5,10.5,29.4,8.7,51.2-2c0,0-1.6-0.5-3.8-1.9c-1.9-1.2-3.7-2.7-3.7-2.7
		s-0.5,3.3-0.9,3.5c-14.5,5.9-26.3,6.5-32.4,0.4C8.7,141.6,10.7,126.8,19.6,109z"/>
	<path class="st1" d="M152.1,4.5c-8.4-8.3-43.4-4.5-68.8,6.8c0,0,14.5-0.5,24.3,0.8c7.7,1.1,14.2,2.6,17,4.3c-1.2-1.6-1.7-3.1-2-4.5
		c13-4.7,23.5-4.8,29.1,0.8c5.7,5.7,5.5,16.3,0.7,29.4l2.1,3.5C161.2,28.2,160.9,13.3,152.1,4.5z"/>
	<path class="st1" d="M22.3,58.3c1.1-1.2,2.2-2.4,3.3-3.6c5.1-5.5,10.7-10.4,16.7-14.1c0.4-5.9,2.3-12.4,5.3-16.7
		c-10,5.6-18.4,13.8-24.2,23.9c-1.2,2.3-2.4,4.6-3.4,7c-1.1,2.6-2.2,6-3.1,10c0.1-0.1,0.2-0.3,0.3-0.4
		C18.8,62.3,20.5,60.3,22.3,58.3z"/>
</g>
</svg>
