<?xml version="1.0" encoding="utf-8"?>
<!-- Generator: Adobe Illustrator 21.0.0, SVG Export Plug-In . SVG Version: 6.00 Build 0)  -->
<svg version="1.1" id="Слой_1" xmlns="http://www.w3.org/2000/svg" xmlns:xlink="http://www.w3.org/1999/xlink" x="0px" y="0px"
	 viewBox="0 0 36 36" style="enable-background:new 0 0 36 36;" xml:space="preserve">
<style type="text/css">
	.st0{fill:#444444;}
</style>
<g>
	<path class="st0" d="M32.4,10.4c0-0.5-0.1-0.8-0.6-1c-4.3-2.4-13.9-8-13.9-8S8.2,7,3.9,9.5C3.7,9.6,3.6,9.8,3.6,10
		c0,0.4,0,0.7,0,1.1c0,4.9,0,9.7,0,14.6c0,0.5,0.2,0.7,0.6,1c4.3,2.4,13.9,8,13.9,8s9.5-5.6,13.8-8c0.5-0.3,0.6-0.6,0.6-1.2
		C32.4,20.4,32.4,15.4,32.4,10.4z M4.6,12.4c0-0.5,0-1,0-1.6c3.8,2.2,9.5,5.5,13.8,7.9c0.1,0.1,0.3,0.2,0.4,0.3
		c2.1,1.1,4.1,2.3,6.1,3.5c0.2,0.1,0.4,0.3,0.6,0.4c-0.3,0.2-0.6,0.3-0.9,0.5c-2,1.2-4,2.4-6,3.5c-0.1,0-0.2,0.1-0.2,0.1L18,27.2
		L17.8,27c-0.1-0.1-0.1-0.1-0.2-0.2c-4-2.1-8.3-4.6-12.4-6.7c-0.4-0.2-0.6-0.5-0.6-1C4.6,17,4.6,14.7,4.6,12.4z M18.8,32.9
		c-0.1,0.1-0.2,0.1-0.3,0.2L18,33.3l-0.7-0.4c-0.1,0-0.1-0.1-0.2-0.1c-0.1,0-0.1-0.1-0.2-0.1l0,0v0c-3.9-2.2-7.8-4.5-11.7-6.7
		c-0.2-0.1-0.5-0.4-0.5-0.6c0-1.3,0-2.7,0-4.2c4.5,2.4,9,5.1,13.4,7.5c0,0,0,0,0,0l1.1-0.7v0c2.4-1.4,4.8-2.8,7.2-4.2
		c0.1-0.1,0.4-0.2,0.5-0.1c1.4,0.8,2.7,1.5,4.2,2.4C26.8,28.3,22.8,30.6,18.8,32.9z M31.4,16.9c0,1.3,0,2.6,0,3.9c0,1.3,0,2.7,0,4.1
		c-3.9-2.2-7.7-4.4-11.5-6.6l0,0c0,0-6.5-3.7-8.4-4.8c-0.2-0.1-0.4-0.2-0.7-0.4c2.1-1.2,4.1-2.4,6.1-3.5l0,0l1-0.6l0.7,0.4
		c0.1,0,0.1,0.1,0.2,0.1c3.9,2,7.9,4.2,11.8,6.2C31.2,15.9,31.4,16.3,31.4,16.9z M31.4,13.2c0,0.5,0,1,0,1.6
		c-4.2-2.2-8.2-4.4-12.3-6.5v0l-0.4-0.2c-0.2-0.1-0.4-0.2-0.6-0.3c0,0,0,0,0,0L18,7.7l-1,0.6c-2,1.1-4,2.2-5.9,3.4
		c-1,0.6-1.7,0.7-2.6,0c-0.9-0.7-2-1.2-3.1-1.8C5.6,9.8,5.8,9.6,6,9.5c3.7-2.1,7.3-4.2,11-6.3l1-0.5L18.6,3c0.1,0,0.1,0.1,0.2,0.1
		c3.4,1.9,6.7,3.8,10,5.7c0.8,0.5,1.9,0.8,2.3,1.5C31.6,11.1,31.3,12.3,31.4,13.2z"/>
</g>
</svg>
