<?xml version="1.0" encoding="utf-8"?>
<!-- Generator: Adobe Illustrator 19.0.1, SVG Export Plug-In . SVG Version: 6.00 Build 0)  -->
<svg version="1.1" id="Layer_1" xmlns="http://www.w3.org/2000/svg" xmlns:xlink="http://www.w3.org/1999/xlink" x="0px" y="0px"
	 viewBox="0 0 131.8 31.5" style="enable-background:new 0 0 131.8 31.5;" xml:space="preserve">
<style type="text/css">
	.st0{fill:#FFFFFF;}
	.st1{fill:#FECC16;}
</style>
<path class="st0" d="M11.1,24.3l3-0.3c0,0.9,0.3,1.4,0.9,1.7c0.6,0.3,1.3,0.4,2.1,0.3c0.8-0.1,1.4-0.3,1.8-0.6s0.6-0.7,0.6-1.2
	c0-0.4-0.2-0.8-0.7-1c-0.3-0.1-0.6-0.2-0.8-0.3c-0.2-0.1-0.3-0.1-0.5-0.1c-0.8-0.2-1.2-0.3-1.4-0.4l-0.6-0.2c-0.4-0.1-0.8-0.2-1-0.3
	c-0.3-0.1-0.5-0.2-0.8-0.3c-0.3-0.1-0.5-0.3-0.8-0.5c-0.9-0.6-1.3-1.5-1.3-2.7c0-1.4,0.5-2.5,1.5-3.4c1-0.9,2.3-1.5,4-1.6
	c0.9-0.1,1.6-0.1,2.3,0.1c0.7,0.1,1.3,0.4,1.8,0.7c0.5,0.4,0.9,0.8,1.1,1.4c0.3,0.6,0.4,1.3,0.4,2.2l-3,0.3c0-0.8-0.2-1.3-0.7-1.6
	c-0.5-0.3-1.1-0.4-1.9-0.3c-0.5,0.1-0.9,0.2-1.3,0.3s-0.6,0.4-0.8,0.6c-0.2,0.2-0.3,0.5-0.3,0.8c0,0.5,0.2,0.8,0.6,1
	c0.3,0.1,0.5,0.2,0.7,0.3c0,0,0.1,0,0.1,0s0.1,0,0.1,0c0,0,0.1,0,0.1,0l0.9,0.2l0.6,0.1c0.2,0.1,0.7,0.2,1.3,0.4l1.1,0.4
	c0.4,0.1,0.8,0.3,1.1,0.5c0.5,0.3,0.9,0.7,1.1,1.2c0.3,0.4,0.4,0.9,0.4,1.4c0,0.1,0,0.1,0,0.2c0,1.4-0.5,2.5-1.5,3.5
	c-1,0.9-2.4,1.5-4.2,1.7c-1.7,0.2-3.1-0.1-4.2-0.9C11.6,27.2,11.1,26,11.1,24.3z"/>
<path class="st0" d="M25.8,27.6V12.7l3-0.3v6.1l5.4-0.6v-6.1l3-0.3v14.8l-3,0.3v-6.1l-5.4,0.6v6.1L25.8,27.6z"/>
<path class="st0" d="M40.9,26V11.1l3-0.3v14.8L40.9,26z"/>
<path class="st0" d="M47.7,25.2V10.4l6.6-0.7c1.3-0.1,2.4,0.2,3.1,0.9c0.8,0.8,1.1,1.9,1.1,3.3c0,1.4-0.4,2.6-1.1,3.5
	c-0.8,0.9-1.8,1.5-3.1,1.6l-3.6,0.4v5.5L47.7,25.2z M50.7,16.8l3.1-0.3c0.5-0.1,0.9-0.3,1.3-0.7c0.3-0.4,0.5-0.9,0.5-1.6
	c0-0.6-0.2-1.1-0.5-1.5c-0.3-0.3-0.8-0.5-1.3-0.4l-3.1,0.3V16.8z"/>
<path class="st0" d="M60.9,18.8v-4.8c0-1.7,0.5-3,1.6-4.1c1.1-1.1,2.5-1.7,4.3-1.9c1.8-0.2,3.3,0.1,4.3,1c1.1,0.8,1.6,2.1,1.6,3.8
	v4.8c0,1.7-0.5,3-1.6,4.1c-1.1,1.1-2.5,1.7-4.3,1.9c-1.8,0.2-3.3-0.1-4.3-1C61.4,21.7,60.9,20.5,60.9,18.8z M63.9,18.6
	c0,0.7,0.3,1.3,0.8,1.7c0.5,0.4,1.2,0.6,2.1,0.5c0.9-0.1,1.6-0.4,2.1-0.9c0.5-0.5,0.8-1.1,0.8-1.8v-5c0-0.7-0.3-1.3-0.8-1.7
	c-0.5-0.4-1.2-0.6-2.1-0.5c-0.9,0.1-1.6,0.4-2.1,0.9c-0.5,0.5-0.8,1.1-0.8,1.8V18.6z"/>
<path class="st0" d="M74.5,8.6v-1l2.9-0.3l3.8,10.4l3.7-11.2l2.9-0.3v1l-5.1,14.4l-3,0.3L74.5,8.6z"/>
<path class="st0" d="M87.4,21v-2.8l3-0.3v2.8L87.4,21z"/>
<path class="st1" d="M93.7,20.4V5.5l2.9-0.3l3.9,6.1l3.9-7l2.8-0.3v14.8l-2.9,0.3V9.7l-2.9,5.2l-1.9,0.2l-2.9-4.6V20L93.7,20.4z"/>
<path class="st1" d="M111,18.5V3.7l9.7-1v2.6L114,6v3.5l5.7-0.6v2.5L114,12v3.6l6.7-0.7v2.6L111,18.5z"/>
<text transform="matrix(1 0 0 1 -1.0933 97.3383)" style="font-family:'BrutalType-Bold'; font-size:25.7318px;">SHIPOV.ME</text>
</svg>
