<?xml version="1.0" encoding="utf-8"?>
<!-- Generator: Adobe Illustrator 19.0.1, SVG Export Plug-In . SVG Version: 6.00 Build 0)  -->
<svg version="1.1" id="Layer_1" xmlns="http://www.w3.org/2000/svg" xmlns:xlink="http://www.w3.org/1999/xlink" x="0px" y="0px"
	 viewBox="0 0 90 90" style="enable-background:new 0 0 90 90;" xml:space="preserve">
<style type="text/css">
	.st0{opacity:0.15;}
	.st1{fill:#FFFFFF;}
</style>
<g class="st0">
	<path class="st1" d="M28,52.3l8.2-0.8c0.5,2.8,1.5,4.8,3,6.1c1.5,1.3,3.6,1.9,6.1,1.9c2.7,0,4.8-0.6,6.2-1.7c1.4-1.2,2.1-2.5,2.1-4
		c0-1-0.3-1.8-0.9-2.5c-0.6-0.7-1.6-1.3-3-1.8c-1-0.3-3.2-1-6.8-1.8c-4.5-1.1-7.7-2.5-9.5-4.1c-2.6-2.3-3.9-5.1-3.9-8.4
		c0-2.1,0.6-4.1,1.8-6c1.2-1.9,3-3.3,5.2-4.2c2.3-1,5-1.5,8.2-1.5c5.3,0,9.2,1.2,11.9,3.5c2.7,2.3,4,5.4,4.2,9.2l-8.5,0.4
		c-0.4-2.2-1.1-3.7-2.3-4.6c-1.2-0.9-3-1.4-5.4-1.4c-2.5,0-4.4,0.5-5.8,1.5c-0.9,0.6-1.3,1.5-1.3,2.6c0,1,0.4,1.8,1.3,2.5
		c1.1,0.9,3.7,1.8,7.8,2.8c4.1,1,7.2,2,9.1,3c2,1,3.5,2.5,4.6,4.3c1.1,1.8,1.7,4,1.7,6.7c0,2.4-0.7,4.6-2,6.7
		c-1.3,2.1-3.2,3.7-5.7,4.7c-2.4,1-5.5,1.5-9.1,1.5c-5.3,0-9.4-1.2-12.2-3.7C30.2,60.5,28.5,57,28,52.3z"/>
</g>
<g class="st0">
	<path class="st1" d="M45,4c22.6,0,41,18.4,41,41S67.6,86,45,86S4,67.6,4,45S22.4,4,45,4 M45,0C20.1,0,0,20.1,0,45s20.1,45,45,45
		s45-20.1,45-45S69.9,0,45,0L45,0z"/>
</g>
</svg>
