<?xml version="1.0" encoding="utf-8"?>
<!-- Generator: Adobe Illustrator 18.1.1, SVG Export Plug-In . SVG Version: 6.00 Build 0)  -->
<svg version="1.1" id="Layer_1" xmlns="http://www.w3.org/2000/svg" xmlns:xlink="http://www.w3.org/1999/xlink" x="0px" y="0px"
	 viewBox="0 0 303 202" enable-background="new 0 0 303 202" xml:space="preserve">
<path fill="#FF9800" d="M64.3,124.4v-13.6h2.5l5.2,8.5v-8.5h2.8v13.6h-2.5l-5.2-8.5v8.5H64.3z"/>
<path fill="#FF9800" d="M78.2,124.4v-13.6h8.9v2.4H81v3.2h5.2v2.3H81v3.3h6.1v2.4H78.2z"/>
<path fill="#FF9800" d="M88.6,124.4v-0.9l4.2-6.2l-3.8-5.6v-0.9h2.8l2.7,4.4l2.8-4.4h2.6v0.9l-3.8,5.6l4.2,6.2v0.9h-2.8l-3.1-4.9
	l-3.2,4.9H88.6z"/>
<path fill="#FF9800" d="M101.2,113.2v-2.4h10.4v2.4h-3.8v11.2h-2.8v-11.2H101.2z"/>
<path opacity="6.000000e-002" d="M64.3,208.9v-84.3h6.9v84.3H64.3z"/>
<path opacity="6.000000e-002" d="M85.8,130.8v-6.2h60.3v6.2h-26.7v78.1h-6.9v-78.1H85.8z"/>
<path opacity="6.000000e-002" d="M160.7,201.9v-77.3h46.9v5.7H167v29.8h35.4v5.7H167v30.4h40.6v5.7H160.7z"/>
<path opacity="6.000000e-002" d="M230.2,208.9v-84.3h6.5l29.9,45.7l29.8-45.7h6.6v84.3h-6.9v-72.3l-27.3,42.3h-4.7l-27.4-42.1v72
	H230.2z"/>
</svg>
