<?xml version="1.0" encoding="utf-8"?>
<!-- Generator: Adobe Illustrator 17.1.0, SVG Export Plug-In . SVG Version: 6.00 Build 0)  -->
<!DOCTYPE svg PUBLIC "-//W3C//DTD SVG 1.1//EN" "http://www.w3.org/Graphics/SVG/1.1/DTD/svg11.dtd">
<svg version="1.1" id="Layer_1" xmlns="http://www.w3.org/2000/svg" xmlns:xlink="http://www.w3.org/1999/xlink" x="0px" y="0px"
	 viewBox="398 0 400 400" enable-background="new 398 0 400 400" xml:space="preserve">
<path fill="#FFFFFF" d="M598,0H398v400h200h200V0H598z M765.7,367.7H598H430.3V32.3H598h167.7V367.7z"/>
<path fill="#FFFFFF" d="M567.1,274.2c6.7-1.8,12.6-4.4,17.8-8.1c5.1-3.6,9.3-8.4,12.4-14.2c3-5.7,4.6-12.6,4.6-20.5
	c0-9.8-2.3-18.1-7.1-25.1c-4.7-6.9-11.9-11.8-21.5-14.6c7.1-3.3,12.4-7.7,16-12.9c3.6-5.3,5.4-11.8,5.4-19.7
	c0-7.3-1.2-13.4-3.6-18.4c-2.4-5-5.9-9-10.2-11.9c-4.4-3-9.7-5.2-15.8-6.5c-6.2-1.3-12.9-2-20.4-2h-73.8v156.6h75.9
	C553.6,276.8,560.5,275.9,567.1,274.2z M505.2,146.9h32.3c3,0,6,0.2,8.9,0.8c2.9,0.5,5.4,1.4,7.6,2.7c2.2,1.3,4,3.1,5.3,5.4
	c1.3,2.3,1.9,5.3,1.9,9c0,6.6-1.9,11.3-5.9,14.2c-4,2.9-9.1,4.4-15.2,4.4h-34.9L505.2,146.9L505.2,146.9z M505.2,250.2V207h37.5
	c7.4,0,13.5,1.7,18,5.1c4.5,3.5,6.8,9.2,6.8,17.3c0,4.1-0.7,7.5-2.1,10.1c-1.4,2.6-3.3,4.7-5.6,6.2c-2.3,1.6-5,2.6-8.1,3.3
	c-3,0.7-6.3,1-9.7,1L505.2,250.2L505.2,250.2z"/>
<path fill="#FFFFFF" d="M627.6,263.3c5.1,5.3,11.1,9.3,18.3,12.2c7.2,2.8,15.3,4.3,24.2,4.3c12.8,0,23.8-2.9,32.8-8.8
	c9.1-5.9,15.8-15.6,20.2-29.3h-27.4c-1.1,3.5-3.8,6.9-8.3,10.1c-4.6,3.2-10,4.8-16.3,4.8c-8.7,0-15.5-2.3-20.1-6.8
	c-4.7-4.6-7.7-13-7.7-22h81.8c0.6-8.8-0.1-17.2-2.2-25.2c-2.1-8.1-5.3-15.2-10-21.5c-4.6-6.3-10.5-11.3-17.7-15
	c-7.2-3.8-15.6-5.6-25.2-5.6c-8.7,0-16.5,1.5-23.6,4.6c-7.1,3.1-13.2,7.3-18.4,12.6c-5.1,5.3-9,11.7-11.9,19
	c-2.8,7.3-4.2,15.2-4.2,23.7c0,8.8,1.4,16.9,4.1,24.2C618.8,251.7,622.6,258,627.6,263.3z M644.7,200.5c0.8-2.8,2.2-5.5,4.2-8
	c2-2.5,4.7-4.6,7.9-6.2c3.3-1.7,7.4-2.5,12.4-2.5c7.6,0,13.9,2.2,17.6,6.3c3.7,4.1,6.4,10,7.2,17.9h-50.7
	C643.4,205.8,643.9,203.3,644.7,200.5z"/>
<rect x="636.9" y="130.7" fill="#FFFFFF" width="63.5" height="15.5"/>
</svg>
