<?xml version="1.0" encoding="utf-8"?>
<!-- Generator: Adobe Illustrator 17.1.0, SVG Export Plug-In . SVG Version: 6.00 Build 0)  -->
<!DOCTYPE svg PUBLIC "-//W3C//DTD SVG 1.1//EN" "http://www.w3.org/Graphics/SVG/1.1/DTD/svg11.dtd">
<svg version="1.1" id="Слой_1" xmlns="http://www.w3.org/2000/svg" xmlns:xlink="http://www.w3.org/1999/xlink" x="0px" y="0px"
	 viewBox="-420.1 -53.3 121.5 121.5" enable-background="new -420.1 -53.3 121.5 121.5" xml:space="preserve">
<g>
	<path fill="#FFFFFF" d="M-352.3,8.2c-1.3-0.7-2.3-1.3-3.2-1.9l-5-2.5c-1.3-0.7-3.7-1.8-5.6-3.2c-1.5-1-4.3-3.2-5.3-8.1
		c0,0-4.3,9.2,5.3,15.4c1.2,0.7,2.2,1.3,3.1,1.8l5.6,2.8c1.3,0.7,3.4,1.8,5.1,2.9c1.5,1,4.3,3.2,5.3,8.1
		C-347,23.7-342.8,14.5-352.3,8.2z"/>
	<path fill="#FFFFFF" d="M-343.5-11.6L-343.5-11.6h-17l0,0l0,0l0,0l0,0c2.6,0.9,5.4,1.8,7.2,3.4c1.9,1.9,2.6,4.7,2.8,6.9l0,0
		c0,0.1,0.1,0.3,0.3,0.3c0.1,0,0.3-0.1,0.3-0.3c0,0,0.4-4.1,0.7-5.6c0.6-2.6,2.9-3.1,3.5-3.2c0.4-0.1,1.8-0.1,2.2-0.1
		c0.1,0,0.3,0,0.3,0c0.3,0,0.6-0.3,0.6-0.7C-342.8-11.3-343.1-11.6-343.5-11.6z"/>
	<path fill="#FFFFFF" d="M-374.9,28L-374.9,28h17l0,0l0,0l0,0l0,0c-2.6-0.9-5.4-1.8-7.2-3.4c-1.9-1.9-2.6-4.7-2.8-6.9l0,0
		c0-0.1-0.1-0.3-0.3-0.3c-0.1,0-0.3,0.1-0.3,0.3c0,0-0.4,4.1-0.7,5.6c-0.6,2.6-2.9,3.1-3.5,3.2c-0.4,0.1-1.8,0.1-2.2,0.1
		c-0.1,0-0.3,0-0.3,0c-0.3,0-0.6,0.3-0.6,0.7C-375.6,27.7-375.4,28-374.9,28z"/>
</g>
<path fill="#FFFFFF" d="M-420.1,7.4l60.7,60.7l60.7-60.7l-60.7-60.7L-420.1,7.4z M-301.5,7.4l-57.9,57.9l-57.9-57.9l57.9-57.9
	L-301.5,7.4z"/>
</svg>
