<?xml version="1.0" encoding="utf-8"?>
<!-- Generator: Adobe Illustrator 17.1.0, SVG Export Plug-In . SVG Version: 6.00 Build 0)  -->
<!DOCTYPE svg PUBLIC "-//W3C//DTD SVG 1.1//EN" "http://www.w3.org/Graphics/SVG/1.1/DTD/svg11.dtd">
<svg version="1.1" id="Layer_1" xmlns="http://www.w3.org/2000/svg" xmlns:xlink="http://www.w3.org/1999/xlink" x="0px" y="0px"
	 viewBox="398 0 400 400" enable-background="new 398 0 400 400" xml:space="preserve">
<path fill="#FFFFFF" d="M598,0H398v400h200h200V0H598z M765.7,367.7H598H430.3V32.3H598h167.7V367.7z"/>
<path fill="#FFFFFF" d="M475.2,195.5l58.7,21.9l22.7,73c1.5,4.7,7.2,6.4,11,3.3l32.7-26.7c3.4-2.8,8.3-2.9,11.9-0.3l59,42.8
	c4.1,2.9,9.8,0.7,10.8-4.2l43.2-207.8c1.1-5.4-4.2-9.8-9.3-7.9l-240.7,92.9C469.2,184.8,469.3,193.2,475.2,195.5z M552.9,205.7
	l114.6-70.6c2.1-1.3,4.2,1.5,2.4,3.2l-94.6,87.9c-3.3,3.1-5.5,7.2-6.1,11.7l-3.2,23.9c-0.4,3.2-4.9,3.5-5.8,0.4l-12.4-43.5
	C546.5,213.7,548.5,208.4,552.9,205.7z"/>
</svg>
