<?xml version="1.0" encoding="utf-8"?>
<!-- Generator: Adobe Illustrator 17.1.0, SVG Export Plug-In . SVG Version: 6.00 Build 0)  -->
<!DOCTYPE svg PUBLIC "-//W3C//DTD SVG 1.1//EN" "http://www.w3.org/Graphics/SVG/1.1/DTD/svg11.dtd">
<svg version="1.1" id="Слой_1" xmlns="http://www.w3.org/2000/svg" xmlns:xlink="http://www.w3.org/1999/xlink" x="0px" y="0px"
	 viewBox="244.7 35 708.3 325" enable-background="new 244.7 35 708.3 325" xml:space="preserve">
<path fill="#FFFFFF" d="M643,95c46.7,0,76.7,55,106.7,95c21.7,28.3,61.7,70,103.3,70c23.3,0,53.3-10,53.3-50
	c0-30-21.7-43.3-33.3-46.7c-5-3.3-6.7-5-5-11.7c1.7-5,11.7-26.7,38.3-26.7c28.3,0,46.7,26.7,46.7,51.7c0,36.7-33.3,73.3-48.3,88.3
	c-10,10-13.3,13.3-21.7,25c-28.3,48.3-106.7,70-163.3,70c-60,0-118.3-15-170-51.7c-43.3-33.3-60-65-60-98.3
	c0-28.3,13.3-41.7,26.7-50c-28.3-43.3-61.7-95-130-95S293,108.3,293,158.3c0,78.3,66.7,118.3,98.3,118.3c6.7,0,6.7,5,3.3,6.7
	c-16.7,11.7-33.3,18.3-50,18.3c-50,0-100-48.3-100-111.7c0-90,90-155,163.3-155c48.3,0,86.7,21.7,126.7,76.7
	c25,35,61.7,101.7,116.7,145C701.3,295,744.7,305,773,305h16.7v-3.3c-61.7-13.3-95-51.7-113.3-70c-20-20-65-70-88.3-113.3
	C596.3,106.7,618,95,643,95L643,95z"/>
</svg>
