<?xml version="1.0" encoding="utf-8"?>
<!-- Generator: Adobe Illustrator 21.0.0, SVG Export Plug-In . SVG Version: 6.00 Build 0)  -->
<svg version="1.1" id="Слой_1" xmlns="http://www.w3.org/2000/svg" xmlns:xlink="http://www.w3.org/1999/xlink" x="0px" y="0px"
	 viewBox="0 0 52.8 24" style="enable-background:new 0 0 52.8 24;" xml:space="preserve">
<style type="text/css">
	.st0{fill-rule:evenodd;clip-rule:evenodd;}
</style>
<path class="st0" d="M29.1,5.7c2.8,0,4.6,3.3,6.4,5.7c1.3,1.7,3.7,4.2,6.2,4.2c1.4,0,3.2-0.6,3.2-3c0-1.8-1.3-2.6-2-2.8
	c-0.3-0.2-0.4-0.3-0.3-0.7c0.1-0.3,0.7-1.6,2.3-1.6c1.7,0,2.8,1.6,2.8,3.1c0,2.2-2,4.4-2.9,5.3c-0.6,0.6-0.8,0.8-1.3,1.5
	c-1.7,2.9-6.4,4.2-9.8,4.2c-3.6,0-7.1-0.9-10.2-3.1c-2.6-2-3.6-3.9-3.6-5.9c0-1.7,0.8-2.5,1.6-3c-1.7-2.6-3.7-5.7-7.8-5.7
	c-4.1,0-5.6,2.6-5.6,5.6c0,4.7,4,7.1,5.9,7.1c0.4,0,0.4,0.3,0.2,0.4c-1,0.7-2,1.1-3,1.1c-3,0-6-2.9-6-6.7c0-5.4,5.4-9.3,9.8-9.3
	c2.9,0,5.2,1.3,7.6,4.6c1.5,2.1,3.7,6.1,7,8.7c3,2.3,5.6,2.9,7.3,2.9h1v-0.2c-3.7-0.8-5.7-3.1-6.8-4.2c-1.2-1.2-3.9-4.2-5.3-6.8
	C26.3,6.4,27.6,5.7,29.1,5.7L29.1,5.7z"/>
</svg>
