<?xml version="1.0" encoding="utf-8"?>
<!-- Generator: Adobe Illustrator 17.1.0, SVG Export Plug-In . SVG Version: 6.00 Build 0)  -->
<!DOCTYPE svg PUBLIC "-//W3C//DTD SVG 1.1//EN" "http://www.w3.org/Graphics/SVG/1.1/DTD/svg11.dtd">
<svg version="1.1" id="Layer_1" xmlns="http://www.w3.org/2000/svg" xmlns:xlink="http://www.w3.org/1999/xlink" x="0px" y="0px"
	 viewBox="398 0 400 400" enable-background="new 398 0 400 400" xml:space="preserve">
<path fill="#FFFFFF" d="M598,0H398v400h200h200V0H598z M765.7,367.7H598H430.3V32.3H598h167.7V367.7z"/>
<path fill="#FFFFFF" d="M519,227c9.8,13.3,21.1,25.1,35.7,33.4c16.5,9.4,34.3,12.3,53.1,11.4c8.8-0.4,11.4-2.7,11.8-11.4
	c0.3-6,1-11.9,3.9-17.3c2.9-5.3,7.3-6.3,12.4-3c2.5,1.7,4.6,3.7,6.7,5.9c4.9,5.4,9.7,11,14.8,16.2c6.4,6.5,14.1,10.4,23.6,9.6
	l37.1,0c6-0.4,9.1-7.7,5.6-14.4c-2.4-4.7-5.6-8.8-8.9-12.8c-7.6-9.1-16.5-16.9-24.9-25.1c-7.6-7.4-8.1-11.7-2-20.3
	c6.7-9.4,13.9-18.3,20.6-27.7c6.3-8.7,12.7-17.4,16-27.8c2.1-6.6,0.2-9.6-6.5-10.7c-1.2-0.2-2.4-0.2-3.6-0.2l-40.3,0
	c-5-0.1-7.7,2.1-9.5,6.5c-2.4,6-4.8,11.9-7.7,17.6c-6.4,13-13.6,25.6-23.6,36.3c-2.2,2.3-4.7,5.3-8.4,4.1c-4.6-1.7-6-9.3-5.9-11.9
	l0-46.6c-0.9-6.6-2.4-9.6-9-10.9h-41.9c-5.6,0-8.4,2.2-11.4,5.7c-1.7,2-2.2,3.3,1.3,4c6.9,1.3,10.9,5.8,11.9,12.8
	c1.7,11.1,1.5,22.3,0.6,33.5c-0.3,3.3-0.8,6.5-2.1,9.6c-2,4.8-5.3,5.8-9.6,2.8c-3.9-2.7-6.6-6.4-9.3-10.2
	c-10.1-14.2-18.1-29.5-24.6-45.6c-1.9-4.6-5.1-7.5-10.1-7.5c-12.1-0.2-24.2-0.2-36.3,0c-7.3,0.1-9.4,3.7-6.5,10.3
	C485.2,172.6,499.9,201.1,519,227z"/>
</svg>
