<?xml version="1.0" encoding="utf-8"?>
<!-- Generator: Adobe Illustrator 17.1.0, SVG Export Plug-In . SVG Version: 6.00 Build 0)  -->
<!DOCTYPE svg PUBLIC "-//W3C//DTD SVG 1.1//EN" "http://www.w3.org/Graphics/SVG/1.1/DTD/svg11.dtd">
<svg version="1.1" id="Capa_1" xmlns="http://www.w3.org/2000/svg" xmlns:xlink="http://www.w3.org/1999/xlink" x="0px" y="0px"
	 viewBox="247.4 109.8 701.2 400.3" enable-background="new 247.4 109.8 701.2 400.3" xml:space="preserve">
<g>
	<g>
		<path fill="#FFFFFF" d="M944.9,471.3c-0.8-1.8-1.6-3.3-2.3-4.5c-12.2-21.9-35.5-48.8-69.7-80.7l-0.7-0.7l-0.4-0.4l-0.4-0.4h-0.4
			c-15.6-14.8-25.5-24.8-29.6-30c-7.5-9.7-9.3-19.6-5.1-29.6c2.9-7.5,13.8-23.4,32.9-47.8c10-12.9,17.9-23.3,23.7-31.1
			c42-56,60.4-91.7,54.8-107.4l-2.2-3.7c-1.5-2.2-5.2-4.2-11.4-6c-6-1.8-13.8-2.2-23.4-1l-105.2,0.7c-1.6-0.5-4.1-0.5-7.3,0.1
			c-3.1,0.7-4.8,1.1-4.8,1.1l-1.8,1l-1.5,1.1c-1.2,0.7-2.6,2.1-4,3.8c-1.5,1.8-2.6,4-3.7,6.4c-11.5,29.4-24.5,56.8-39,82.2
			c-9,15.1-17.3,28.2-24.8,39.3c-7.5,11.1-13.8,19.2-19,24.5c-5.1,5.2-9.7,9.4-13.8,12.6c-4.1,3.1-7.3,4.5-9.4,4s-4.2-1-6.2-1.5
			c-3.4-2.2-6.2-5.2-8.2-8.9c-2.1-3.8-3.4-8.5-4.2-14.2c-0.7-5.8-1.1-10.7-1.2-14.8s0-10,0.1-17.5c0.3-7.5,0.4-12.6,0.4-15.3
			c0-9.3,0.1-19.3,0.5-30.1c0.4-10.8,0.7-19.4,1-25.7c0.3-6.3,0.4-13,0.4-20.1s-0.4-12.6-1.2-16.6c-0.8-4-2.2-7.9-3.8-11.6
			c-1.6-3.8-4.2-6.7-7.5-8.8c-3.3-2.1-7.4-3.7-12.2-4.9c-12.9-2.9-29.3-4.5-49.3-4.8c-45.3-0.5-74.4,2.5-87.2,8.8
			c-5.1,2.7-9.7,6.3-13.8,11c-4.4,5.3-4.9,8.2-1.8,8.8c14.7,2.2,24.9,7.4,31.1,15.7l2.2,4.4c1.6,3.1,3.4,8.8,5.1,16.8
			c1.6,8.1,2.7,17,3.3,26.7c1.2,17.8,1.2,33,0,45.6c-1.2,12.6-2.3,22.5-3.4,29.6s-2.7,12.7-4.9,17.1s-3.7,7.1-4.4,8.1
			c-0.7,1-1.4,1.6-1.8,1.8c-3.1,1.2-6.4,1.8-9.9,1.8s-7.5-1.6-12.5-5.1c-4.9-3.4-9.9-8.1-15.2-14.1c-5.2-6-11.1-14.2-17.7-25.1
			c-6.6-10.7-13.4-23.4-20.4-37.9l-5.9-10.5c-3.7-6.8-8.6-16.7-14.9-29.7c-6.3-13-11.9-25.6-16.8-37.8c-1.9-5.1-4.9-9-8.8-11.6
			l-1.8-1.1c-1.2-1-3.1-2.1-5.9-3.1s-5.5-1.9-8.4-2.3l-100,0.7c-10.3,0-17.1,2.3-20.8,7l-1.8,2.2c-0.7,1.2-1.1,3.1-1.1,5.9
			s0.7,6,2.2,9.9c14.7,34.4,30.5,67.4,47.7,99.3s32,57.5,44.8,77c12.6,19.4,25.6,37.8,38.8,55.2c13.1,17.3,21.9,28.3,26.2,33.3
			s7.7,8.5,10,11l9.2,8.8c5.9,5.9,14.4,12.9,25.7,21c11.4,8.2,23.8,16.2,37.7,24.1c13.7,7.9,29.7,14.4,48.1,19.3
			c18.2,4.9,36,7,53.3,6h42c8.5-0.7,14.9-3.4,19.3-8.1l1.5-1.8c1-1.5,1.9-3.7,2.7-6.7c0.8-3,1.2-6.4,1.2-10
			c-0.3-10.4,0.5-19.9,2.3-28.3c1.8-8.4,3.8-14.7,6.2-19c2.3-4.2,4.9-7.8,7.8-10.8c2.9-2.9,4.9-4.7,6.2-5.3c1.2-0.5,2.2-1.1,2.9-1.2
			c5.9-1.9,12.7,0,20.7,5.6c7.9,5.8,15.3,12.7,22.3,21.2c7,8.4,15.3,17.8,25.1,28.3c9.7,10.4,18.2,18.2,25.6,23.4l7.3,4.4
			c4.9,2.9,11.2,5.6,19,8.1c7.8,2.5,14.7,3,20.4,1.8l93.4-1.5c9.2,0,16.4-1.5,21.5-4.5s8.2-6.4,9.2-10c1-3.7,1.1-7.8,0.1-12.5
			C946.5,476.2,945.7,473.1,944.9,471.3z"/>
	</g>
</g>
</svg>
